# xmcd
#
# Track frame offsets: 
#        150
#        12900
#        33055
#        49330
#        64152
#        79909
#        93920
#        108743
#
# Disc length: 1628 seconds
#
# Revision: 0
# Processed by: cddbd v1.5.2PL0 Copyright (c) Steve Scherf et al.
# Submitted via: ExactAudioCopy v1.0b1
#
DISCID=60065a08
DTITLE=Marcia Ramirez - The Barefoot Sessions
DYEAR=2005
DGENRE=Country
TTITLE0=Lonely Town
TTITLE1=Tempted
TTITLE2=I Met Someone Today
TTITLE3=Wild Horses Run
TTITLE4=Broken Star
TTITLE5=It Must Be Birmingham
TTITLE6=Embrace Me
TTITLE7=You Belong In The Sun
EXTD=
EXTT0=
EXTT1=
EXTT2=
EXTT3=
EXTT4=
EXTT5=
EXTT6=
EXTT7=
PLAYORDER=
